<mxfile host="app.diagrams.net" agent="Mozilla/5.0 (Windows NT 10.0; Win64; x64) AppleWebKit/537.36 (KHTML, like Gecko) Chrome/131.0.0.0 Safari/537.36" version="24.9.1">
  <diagram name="Page-1" id="ognR1DaFyA1VMHChEMBM">
    <mxGraphModel dx="1695" dy="1469" grid="1" gridSize="10" guides="1" tooltips="1" connect="1" arrows="1" fold="1" page="1" pageScale="1" pageWidth="827" pageHeight="1169" math="0" shadow="0">
      <root>
        <mxCell id="0" />
        <mxCell id="1" parent="0" />
        <mxCell id="HPwO4W1evmKC7CbNkpxZ-1" value="Main Page Loaded" style="rounded=0;whiteSpace=wrap;html=1;" vertex="1" parent="1">
          <mxGeometry x="550" y="460" width="120" height="60" as="geometry" />
        </mxCell>
        <mxCell id="HPwO4W1evmKC7CbNkpxZ-25" value="" style="edgeStyle=none;curved=1;rounded=0;orthogonalLoop=1;jettySize=auto;html=1;fontSize=12;startSize=8;endSize=8;" edge="1" parent="1" source="HPwO4W1evmKC7CbNkpxZ-3" target="HPwO4W1evmKC7CbNkpxZ-24">
          <mxGeometry relative="1" as="geometry" />
        </mxCell>
        <mxCell id="HPwO4W1evmKC7CbNkpxZ-3" value="Information wizard loaded" style="rounded=0;whiteSpace=wrap;html=1;" vertex="1" parent="1">
          <mxGeometry x="304" y="600" width="120" height="60" as="geometry" />
        </mxCell>
        <mxCell id="HPwO4W1evmKC7CbNkpxZ-10" value="" style="edgeStyle=none;curved=1;rounded=0;orthogonalLoop=1;jettySize=auto;html=1;fontSize=12;startSize=8;endSize=8;" edge="1" parent="1" source="HPwO4W1evmKC7CbNkpxZ-4" target="HPwO4W1evmKC7CbNkpxZ-9">
          <mxGeometry relative="1" as="geometry" />
        </mxCell>
        <mxCell id="HPwO4W1evmKC7CbNkpxZ-11" value="" style="edgeStyle=none;curved=1;rounded=0;orthogonalLoop=1;jettySize=auto;html=1;fontSize=12;startSize=8;endSize=8;" edge="1" parent="1" source="HPwO4W1evmKC7CbNkpxZ-4">
          <mxGeometry relative="1" as="geometry">
            <mxPoint x="364" y="300" as="targetPoint" />
          </mxGeometry>
        </mxCell>
        <mxCell id="HPwO4W1evmKC7CbNkpxZ-4" value="Is User registered?" style="strokeWidth=2;html=1;shape=mxgraph.flowchart.decision;whiteSpace=wrap;" vertex="1" parent="1">
          <mxGeometry x="314" y="120" width="100" height="100" as="geometry" />
        </mxCell>
        <mxCell id="HPwO4W1evmKC7CbNkpxZ-12" value="" style="edgeStyle=none;curved=1;rounded=0;orthogonalLoop=1;jettySize=auto;html=1;fontSize=12;startSize=8;endSize=8;" edge="1" parent="1" source="HPwO4W1evmKC7CbNkpxZ-5" target="HPwO4W1evmKC7CbNkpxZ-4">
          <mxGeometry relative="1" as="geometry" />
        </mxCell>
        <mxCell id="HPwO4W1evmKC7CbNkpxZ-5" value="Start" style="strokeWidth=2;html=1;shape=mxgraph.flowchart.terminator;whiteSpace=wrap;" vertex="1" parent="1">
          <mxGeometry x="314" y="20" width="100" height="60" as="geometry" />
        </mxCell>
        <mxCell id="HPwO4W1evmKC7CbNkpxZ-17" value="" style="edgeStyle=none;curved=1;rounded=0;orthogonalLoop=1;jettySize=auto;html=1;fontSize=12;startSize=8;endSize=8;" edge="1" parent="1">
          <mxGeometry relative="1" as="geometry">
            <mxPoint x="364" y="360" as="sourcePoint" />
            <mxPoint x="364" y="435" as="targetPoint" />
          </mxGeometry>
        </mxCell>
        <mxCell id="HPwO4W1evmKC7CbNkpxZ-80" value="yes" style="edgeLabel;html=1;align=center;verticalAlign=middle;resizable=0;points=[];fontSize=12;" vertex="1" connectable="0" parent="HPwO4W1evmKC7CbNkpxZ-17">
          <mxGeometry x="-0.3131" y="-2" relative="1" as="geometry">
            <mxPoint as="offset" />
          </mxGeometry>
        </mxCell>
        <mxCell id="HPwO4W1evmKC7CbNkpxZ-15" style="edgeStyle=none;curved=1;rounded=0;orthogonalLoop=1;jettySize=auto;html=1;entryX=0.805;entryY=0.672;entryDx=0;entryDy=0;fontSize=12;startSize=8;endSize=8;entryPerimeter=0;exitX=0.25;exitY=1;exitDx=0;exitDy=0;" edge="1" parent="1" source="HPwO4W1evmKC7CbNkpxZ-31" target="HPwO4W1evmKC7CbNkpxZ-79">
          <mxGeometry relative="1" as="geometry">
            <mxPoint x="398.5291479820628" y="340.3587443946187" as="targetPoint" />
            <Array as="points">
              <mxPoint x="690" y="320" />
              <mxPoint x="700" y="350" />
              <mxPoint x="540" y="350" />
            </Array>
          </mxGeometry>
        </mxCell>
        <mxCell id="HPwO4W1evmKC7CbNkpxZ-32" value="" style="edgeStyle=none;curved=1;rounded=0;orthogonalLoop=1;jettySize=auto;html=1;fontSize=12;startSize=8;endSize=8;" edge="1" parent="1" source="HPwO4W1evmKC7CbNkpxZ-9" target="HPwO4W1evmKC7CbNkpxZ-31">
          <mxGeometry relative="1" as="geometry" />
        </mxCell>
        <mxCell id="HPwO4W1evmKC7CbNkpxZ-9" value="User Creates Account" style="shape=parallelogram;html=1;strokeWidth=2;perimeter=parallelogramPerimeter;whiteSpace=wrap;rounded=1;arcSize=12;size=0.23;" vertex="1" parent="1">
          <mxGeometry x="510" y="140" width="100" height="60" as="geometry" />
        </mxCell>
        <mxCell id="HPwO4W1evmKC7CbNkpxZ-13" value="No" style="text;html=1;align=center;verticalAlign=middle;whiteSpace=wrap;rounded=0;fontSize=16;" vertex="1" parent="1">
          <mxGeometry x="430" y="140" width="60" height="30" as="geometry" />
        </mxCell>
        <mxCell id="HPwO4W1evmKC7CbNkpxZ-14" value="Yes" style="text;html=1;align=center;verticalAlign=middle;whiteSpace=wrap;rounded=0;fontSize=16;" vertex="1" parent="1">
          <mxGeometry x="354" y="230" width="60" height="30" as="geometry" />
        </mxCell>
        <mxCell id="HPwO4W1evmKC7CbNkpxZ-20" value="" style="edgeStyle=none;curved=1;rounded=0;orthogonalLoop=1;jettySize=auto;html=1;fontSize=12;startSize=8;endSize=8;" edge="1" parent="1" source="HPwO4W1evmKC7CbNkpxZ-19" target="HPwO4W1evmKC7CbNkpxZ-3">
          <mxGeometry relative="1" as="geometry" />
        </mxCell>
        <mxCell id="HPwO4W1evmKC7CbNkpxZ-23" value="Yes" style="edgeLabel;html=1;align=center;verticalAlign=middle;resizable=0;points=[];fontSize=12;" vertex="1" connectable="0" parent="HPwO4W1evmKC7CbNkpxZ-20">
          <mxGeometry x="-0.4255" y="-3" relative="1" as="geometry">
            <mxPoint as="offset" />
          </mxGeometry>
        </mxCell>
        <mxCell id="HPwO4W1evmKC7CbNkpxZ-21" value="" style="edgeStyle=none;curved=1;rounded=0;orthogonalLoop=1;jettySize=auto;html=1;fontSize=12;startSize=8;endSize=8;" edge="1" parent="1" source="HPwO4W1evmKC7CbNkpxZ-19" target="HPwO4W1evmKC7CbNkpxZ-1">
          <mxGeometry relative="1" as="geometry" />
        </mxCell>
        <mxCell id="HPwO4W1evmKC7CbNkpxZ-22" value="No" style="edgeLabel;html=1;align=center;verticalAlign=middle;resizable=0;points=[];fontSize=12;" vertex="1" connectable="0" parent="HPwO4W1evmKC7CbNkpxZ-21">
          <mxGeometry x="-0.1667" relative="1" as="geometry">
            <mxPoint as="offset" />
          </mxGeometry>
        </mxCell>
        <mxCell id="HPwO4W1evmKC7CbNkpxZ-19" value="Is first login?" style="strokeWidth=2;html=1;shape=mxgraph.flowchart.decision;whiteSpace=wrap;" vertex="1" parent="1">
          <mxGeometry x="314" y="440" width="100" height="100" as="geometry" />
        </mxCell>
        <mxCell id="HPwO4W1evmKC7CbNkpxZ-89" value="" style="edgeStyle=none;curved=1;rounded=0;orthogonalLoop=1;jettySize=auto;html=1;fontSize=12;startSize=8;endSize=8;" edge="1" parent="1" source="HPwO4W1evmKC7CbNkpxZ-24" target="HPwO4W1evmKC7CbNkpxZ-88">
          <mxGeometry relative="1" as="geometry" />
        </mxCell>
        <mxCell id="HPwO4W1evmKC7CbNkpxZ-24" value="user enters required/optional information" style="shape=parallelogram;html=1;strokeWidth=2;perimeter=parallelogramPerimeter;whiteSpace=wrap;rounded=1;arcSize=12;size=0.23;" vertex="1" parent="1">
          <mxGeometry x="304" y="700" width="126" height="70" as="geometry" />
        </mxCell>
        <mxCell id="HPwO4W1evmKC7CbNkpxZ-27" value="&quot;Burger&quot; menu&amp;nbsp;&lt;div&gt;interacted with&lt;/div&gt;" style="shape=parallelogram;html=1;strokeWidth=2;perimeter=parallelogramPerimeter;whiteSpace=wrap;rounded=1;arcSize=12;size=0.23;" vertex="1" parent="1">
          <mxGeometry x="780" y="360" width="100" height="60" as="geometry" />
        </mxCell>
        <mxCell id="HPwO4W1evmKC7CbNkpxZ-56" value="" style="edgeStyle=none;curved=1;rounded=0;orthogonalLoop=1;jettySize=auto;html=1;fontSize=12;startSize=8;endSize=8;" edge="1" parent="1" source="HPwO4W1evmKC7CbNkpxZ-28" target="HPwO4W1evmKC7CbNkpxZ-55">
          <mxGeometry relative="1" as="geometry" />
        </mxCell>
        <mxCell id="HPwO4W1evmKC7CbNkpxZ-28" value="&quot;Scan information&quot; button pressed" style="shape=parallelogram;html=1;strokeWidth=2;perimeter=parallelogramPerimeter;whiteSpace=wrap;rounded=1;arcSize=12;size=0.23;" vertex="1" parent="1">
          <mxGeometry x="780" y="480" width="100" height="60" as="geometry" />
        </mxCell>
        <mxCell id="HPwO4W1evmKC7CbNkpxZ-40" value="" style="edgeStyle=none;curved=1;rounded=0;orthogonalLoop=1;jettySize=auto;html=1;fontSize=12;startSize=8;endSize=8;" edge="1" parent="1" source="HPwO4W1evmKC7CbNkpxZ-29" target="HPwO4W1evmKC7CbNkpxZ-39">
          <mxGeometry relative="1" as="geometry" />
        </mxCell>
        <mxCell id="HPwO4W1evmKC7CbNkpxZ-29" value="&quot;Score&quot; button interacted with" style="shape=parallelogram;html=1;strokeWidth=2;perimeter=parallelogramPerimeter;whiteSpace=wrap;rounded=1;arcSize=12;size=0.23;" vertex="1" parent="1">
          <mxGeometry x="780" y="580" width="100" height="60" as="geometry" />
        </mxCell>
        <mxCell id="HPwO4W1evmKC7CbNkpxZ-95" value="" style="edgeStyle=none;curved=1;rounded=0;orthogonalLoop=1;jettySize=auto;html=1;fontSize=12;startSize=8;endSize=8;" edge="1" parent="1" source="HPwO4W1evmKC7CbNkpxZ-30" target="HPwO4W1evmKC7CbNkpxZ-94">
          <mxGeometry relative="1" as="geometry" />
        </mxCell>
        <mxCell id="HPwO4W1evmKC7CbNkpxZ-30" value="&quot;information wizard&quot; button loaded" style="rounded=0;whiteSpace=wrap;html=1;" vertex="1" parent="1">
          <mxGeometry x="960" y="270" width="120" height="60" as="geometry" />
        </mxCell>
        <mxCell id="HPwO4W1evmKC7CbNkpxZ-31" value="User Account Stored to local database" style="rounded=0;whiteSpace=wrap;html=1;" vertex="1" parent="1">
          <mxGeometry x="660" y="140" width="120" height="60" as="geometry" />
        </mxCell>
        <mxCell id="HPwO4W1evmKC7CbNkpxZ-33" value="Stored to local database" style="rounded=0;whiteSpace=wrap;html=1;" vertex="1" parent="1">
          <mxGeometry x="500" y="840" width="120" height="60" as="geometry" />
        </mxCell>
        <mxCell id="HPwO4W1evmKC7CbNkpxZ-97" value="" style="edgeStyle=none;curved=1;rounded=0;orthogonalLoop=1;jettySize=auto;html=1;fontSize=12;startSize=8;endSize=8;" edge="1" parent="1" source="HPwO4W1evmKC7CbNkpxZ-35" target="HPwO4W1evmKC7CbNkpxZ-92">
          <mxGeometry relative="1" as="geometry" />
        </mxCell>
        <mxCell id="HPwO4W1evmKC7CbNkpxZ-35" value="&quot;Help&quot; button loaded" style="rounded=0;whiteSpace=wrap;html=1;" vertex="1" parent="1">
          <mxGeometry x="960" y="110" width="120" height="60" as="geometry" />
        </mxCell>
        <mxCell id="HPwO4W1evmKC7CbNkpxZ-78" value="" style="edgeStyle=none;curved=1;rounded=0;orthogonalLoop=1;jettySize=auto;html=1;fontSize=12;startSize=8;endSize=8;" edge="1" parent="1" source="HPwO4W1evmKC7CbNkpxZ-36" target="HPwO4W1evmKC7CbNkpxZ-77">
          <mxGeometry relative="1" as="geometry" />
        </mxCell>
        <mxCell id="HPwO4W1evmKC7CbNkpxZ-36" value="&quot;logout&quot; button loaded" style="rounded=0;whiteSpace=wrap;html=1;" vertex="1" parent="1">
          <mxGeometry x="960" y="350" width="120" height="60" as="geometry" />
        </mxCell>
        <mxCell id="HPwO4W1evmKC7CbNkpxZ-96" value="" style="edgeStyle=none;curved=1;rounded=0;orthogonalLoop=1;jettySize=auto;html=1;fontSize=12;startSize=8;endSize=8;" edge="1" parent="1" source="HPwO4W1evmKC7CbNkpxZ-37" target="HPwO4W1evmKC7CbNkpxZ-93">
          <mxGeometry relative="1" as="geometry" />
        </mxCell>
        <mxCell id="HPwO4W1evmKC7CbNkpxZ-37" value="&quot;Account settings&quot; button loaded" style="rounded=0;whiteSpace=wrap;html=1;" vertex="1" parent="1">
          <mxGeometry x="960" y="190" width="120" height="60" as="geometry" />
        </mxCell>
        <mxCell id="HPwO4W1evmKC7CbNkpxZ-38" style="edgeStyle=none;curved=1;rounded=0;orthogonalLoop=1;jettySize=auto;html=1;exitX=0.25;exitY=1;exitDx=0;exitDy=0;fontSize=12;startSize=8;endSize=8;" edge="1" parent="1" source="HPwO4W1evmKC7CbNkpxZ-36" target="HPwO4W1evmKC7CbNkpxZ-36">
          <mxGeometry relative="1" as="geometry" />
        </mxCell>
        <mxCell id="HPwO4W1evmKC7CbNkpxZ-42" value="" style="edgeStyle=none;curved=1;rounded=0;orthogonalLoop=1;jettySize=auto;html=1;fontSize=12;startSize=8;endSize=8;" edge="1" parent="1" source="HPwO4W1evmKC7CbNkpxZ-39" target="HPwO4W1evmKC7CbNkpxZ-41">
          <mxGeometry relative="1" as="geometry" />
        </mxCell>
        <mxCell id="HPwO4W1evmKC7CbNkpxZ-39" value="Score page loaded, with breakdown of what score is, history and why" style="rounded=0;whiteSpace=wrap;html=1;" vertex="1" parent="1">
          <mxGeometry x="950" y="580" width="120" height="60" as="geometry" />
        </mxCell>
        <mxCell id="HPwO4W1evmKC7CbNkpxZ-43" style="edgeStyle=none;curved=1;rounded=0;orthogonalLoop=1;jettySize=auto;html=1;entryX=0.75;entryY=1;entryDx=0;entryDy=0;fontSize=12;startSize=8;endSize=8;" edge="1" parent="1" source="HPwO4W1evmKC7CbNkpxZ-41" target="HPwO4W1evmKC7CbNkpxZ-1">
          <mxGeometry relative="1" as="geometry">
            <Array as="points">
              <mxPoint x="1170" y="810" />
              <mxPoint x="1180" y="820" />
              <mxPoint x="1110" y="820" />
              <mxPoint x="680" y="820" />
              <mxPoint x="640" y="820" />
            </Array>
          </mxGeometry>
        </mxCell>
        <mxCell id="HPwO4W1evmKC7CbNkpxZ-41" value="&quot;back&quot; arrow pressed" style="shape=parallelogram;html=1;strokeWidth=2;perimeter=parallelogramPerimeter;whiteSpace=wrap;rounded=1;arcSize=12;size=0.23;" vertex="1" parent="1">
          <mxGeometry x="1120" y="580" width="100" height="60" as="geometry" />
        </mxCell>
        <mxCell id="HPwO4W1evmKC7CbNkpxZ-44" value="" style="endArrow=none;html=1;rounded=0;fontSize=12;startSize=8;endSize=8;curved=1;exitX=1;exitY=0.5;exitDx=0;exitDy=0;" edge="1" parent="1" source="HPwO4W1evmKC7CbNkpxZ-1">
          <mxGeometry width="50" height="50" relative="1" as="geometry">
            <mxPoint x="700" y="510" as="sourcePoint" />
            <mxPoint x="760" y="490" as="targetPoint" />
          </mxGeometry>
        </mxCell>
        <mxCell id="HPwO4W1evmKC7CbNkpxZ-45" value="" style="endArrow=none;html=1;rounded=0;fontSize=12;startSize=8;endSize=8;curved=1;" edge="1" parent="1">
          <mxGeometry width="50" height="50" relative="1" as="geometry">
            <mxPoint x="760" y="620" as="sourcePoint" />
            <mxPoint x="760" y="390" as="targetPoint" />
          </mxGeometry>
        </mxCell>
        <mxCell id="HPwO4W1evmKC7CbNkpxZ-46" value="" style="endArrow=classic;html=1;rounded=0;fontSize=12;startSize=8;endSize=8;curved=1;" edge="1" parent="1" target="HPwO4W1evmKC7CbNkpxZ-27">
          <mxGeometry width="50" height="50" relative="1" as="geometry">
            <mxPoint x="760" y="390" as="sourcePoint" />
            <mxPoint x="690" y="330" as="targetPoint" />
          </mxGeometry>
        </mxCell>
        <mxCell id="HPwO4W1evmKC7CbNkpxZ-47" value="" style="endArrow=classic;html=1;rounded=0;fontSize=12;startSize=8;endSize=8;curved=1;entryX=0;entryY=0.5;entryDx=0;entryDy=0;" edge="1" parent="1" target="HPwO4W1evmKC7CbNkpxZ-28">
          <mxGeometry width="50" height="50" relative="1" as="geometry">
            <mxPoint x="760" y="510" as="sourcePoint" />
            <mxPoint x="801" y="400" as="targetPoint" />
          </mxGeometry>
        </mxCell>
        <mxCell id="HPwO4W1evmKC7CbNkpxZ-48" value="" style="endArrow=classic;html=1;rounded=0;fontSize=12;startSize=8;endSize=8;curved=1;entryX=0;entryY=0.5;entryDx=0;entryDy=0;" edge="1" parent="1" target="HPwO4W1evmKC7CbNkpxZ-29">
          <mxGeometry width="50" height="50" relative="1" as="geometry">
            <mxPoint x="760" y="610" as="sourcePoint" />
            <mxPoint x="820" y="550" as="targetPoint" />
          </mxGeometry>
        </mxCell>
        <mxCell id="HPwO4W1evmKC7CbNkpxZ-49" value="" style="endArrow=none;html=1;rounded=0;fontSize=12;startSize=8;endSize=8;curved=1;" edge="1" parent="1">
          <mxGeometry width="50" height="50" relative="1" as="geometry">
            <mxPoint x="920" y="440" as="sourcePoint" />
            <mxPoint x="920" y="120" as="targetPoint" />
          </mxGeometry>
        </mxCell>
        <mxCell id="HPwO4W1evmKC7CbNkpxZ-50" value="" style="endArrow=none;html=1;rounded=0;fontSize=12;startSize=8;endSize=8;curved=1;exitX=1;exitY=0.5;exitDx=0;exitDy=0;" edge="1" parent="1" source="HPwO4W1evmKC7CbNkpxZ-27">
          <mxGeometry width="50" height="50" relative="1" as="geometry">
            <mxPoint x="760" y="340" as="sourcePoint" />
            <mxPoint x="920" y="390" as="targetPoint" />
          </mxGeometry>
        </mxCell>
        <mxCell id="HPwO4W1evmKC7CbNkpxZ-51" value="" style="endArrow=classic;html=1;rounded=0;fontSize=12;startSize=8;endSize=8;curved=1;entryX=0;entryY=0.5;entryDx=0;entryDy=0;" edge="1" parent="1" target="HPwO4W1evmKC7CbNkpxZ-35">
          <mxGeometry width="50" height="50" relative="1" as="geometry">
            <mxPoint x="920" y="140" as="sourcePoint" />
            <mxPoint x="870" y="160" as="targetPoint" />
          </mxGeometry>
        </mxCell>
        <mxCell id="HPwO4W1evmKC7CbNkpxZ-52" value="" style="endArrow=classic;html=1;rounded=0;fontSize=12;startSize=8;endSize=8;curved=1;entryX=0;entryY=0.5;entryDx=0;entryDy=0;" edge="1" parent="1" target="HPwO4W1evmKC7CbNkpxZ-37">
          <mxGeometry width="50" height="50" relative="1" as="geometry">
            <mxPoint x="920" y="220" as="sourcePoint" />
            <mxPoint x="880" y="190" as="targetPoint" />
          </mxGeometry>
        </mxCell>
        <mxCell id="HPwO4W1evmKC7CbNkpxZ-53" value="" style="endArrow=classic;html=1;rounded=0;fontSize=12;startSize=8;endSize=8;curved=1;entryX=-0.017;entryY=0.644;entryDx=0;entryDy=0;entryPerimeter=0;" edge="1" parent="1" target="HPwO4W1evmKC7CbNkpxZ-30">
          <mxGeometry width="50" height="50" relative="1" as="geometry">
            <mxPoint x="920" y="310" as="sourcePoint" />
            <mxPoint x="880" y="250" as="targetPoint" />
          </mxGeometry>
        </mxCell>
        <mxCell id="HPwO4W1evmKC7CbNkpxZ-54" value="" style="endArrow=classic;html=1;rounded=0;fontSize=12;startSize=8;endSize=8;curved=1;entryX=0;entryY=0.5;entryDx=0;entryDy=0;" edge="1" parent="1" target="HPwO4W1evmKC7CbNkpxZ-36">
          <mxGeometry width="50" height="50" relative="1" as="geometry">
            <mxPoint x="920" y="380" as="sourcePoint" />
            <mxPoint x="840" y="270" as="targetPoint" />
          </mxGeometry>
        </mxCell>
        <mxCell id="HPwO4W1evmKC7CbNkpxZ-58" value="" style="edgeStyle=none;curved=1;rounded=0;orthogonalLoop=1;jettySize=auto;html=1;fontSize=12;startSize=8;endSize=8;entryX=0;entryY=0.5;entryDx=0;entryDy=0;" edge="1" parent="1" source="HPwO4W1evmKC7CbNkpxZ-55" target="HPwO4W1evmKC7CbNkpxZ-60">
          <mxGeometry relative="1" as="geometry">
            <mxPoint x="1160" y="510" as="targetPoint" />
          </mxGeometry>
        </mxCell>
        <mxCell id="HPwO4W1evmKC7CbNkpxZ-55" value="Information stored on database sent to APIs" style="rounded=0;whiteSpace=wrap;html=1;" vertex="1" parent="1">
          <mxGeometry x="960" y="480" width="120" height="60" as="geometry" />
        </mxCell>
        <mxCell id="HPwO4W1evmKC7CbNkpxZ-63" value="" style="edgeStyle=none;curved=1;rounded=0;orthogonalLoop=1;jettySize=auto;html=1;fontSize=12;startSize=8;endSize=8;" edge="1" parent="1" source="HPwO4W1evmKC7CbNkpxZ-60">
          <mxGeometry relative="1" as="geometry">
            <mxPoint x="1401.5378047218546" y="507.90137898646617" as="targetPoint" />
          </mxGeometry>
        </mxCell>
        <mxCell id="HPwO4W1evmKC7CbNkpxZ-60" value="Results outputted to User" style="shape=parallelogram;html=1;strokeWidth=2;perimeter=parallelogramPerimeter;whiteSpace=wrap;rounded=1;arcSize=12;size=0.23;" vertex="1" parent="1">
          <mxGeometry x="1150" y="480" width="190" height="55" as="geometry" />
        </mxCell>
        <mxCell id="HPwO4W1evmKC7CbNkpxZ-66" value="" style="edgeStyle=none;curved=1;rounded=0;orthogonalLoop=1;jettySize=auto;html=1;fontSize=12;startSize=8;endSize=8;" edge="1" parent="1" source="HPwO4W1evmKC7CbNkpxZ-64" target="HPwO4W1evmKC7CbNkpxZ-65">
          <mxGeometry relative="1" as="geometry" />
        </mxCell>
        <mxCell id="HPwO4W1evmKC7CbNkpxZ-67" value="yes" style="edgeLabel;html=1;align=center;verticalAlign=middle;resizable=0;points=[];fontSize=12;" vertex="1" connectable="0" parent="HPwO4W1evmKC7CbNkpxZ-66">
          <mxGeometry x="-0.0214" y="1" relative="1" as="geometry">
            <mxPoint as="offset" />
          </mxGeometry>
        </mxCell>
        <mxCell id="HPwO4W1evmKC7CbNkpxZ-73" value="" style="edgeStyle=none;curved=1;rounded=0;orthogonalLoop=1;jettySize=auto;html=1;fontSize=12;startSize=8;endSize=8;" edge="1" parent="1" source="HPwO4W1evmKC7CbNkpxZ-64" target="HPwO4W1evmKC7CbNkpxZ-72">
          <mxGeometry relative="1" as="geometry" />
        </mxCell>
        <mxCell id="HPwO4W1evmKC7CbNkpxZ-87" value="no" style="edgeLabel;html=1;align=center;verticalAlign=middle;resizable=0;points=[];fontSize=12;" vertex="1" connectable="0" parent="HPwO4W1evmKC7CbNkpxZ-73">
          <mxGeometry x="-0.2902" y="-2" relative="1" as="geometry">
            <mxPoint as="offset" />
          </mxGeometry>
        </mxCell>
        <mxCell id="HPwO4W1evmKC7CbNkpxZ-64" value="Does User click &quot;not you?&quot; on data entry?" style="strokeWidth=2;html=1;shape=mxgraph.flowchart.decision;whiteSpace=wrap;" vertex="1" parent="1">
          <mxGeometry x="1400" y="448.5" width="130" height="118" as="geometry" />
        </mxCell>
        <mxCell id="HPwO4W1evmKC7CbNkpxZ-65" value="Data entry removed" style="rounded=0;whiteSpace=wrap;html=1;" vertex="1" parent="1">
          <mxGeometry x="1600" y="480" width="120" height="60" as="geometry" />
        </mxCell>
        <mxCell id="HPwO4W1evmKC7CbNkpxZ-69" value="" style="endArrow=none;html=1;rounded=0;fontSize=12;startSize=8;endSize=8;curved=1;" edge="1" parent="1">
          <mxGeometry width="50" height="50" relative="1" as="geometry">
            <mxPoint x="1653" y="480" as="sourcePoint" />
            <mxPoint x="1653" y="390" as="targetPoint" />
          </mxGeometry>
        </mxCell>
        <mxCell id="HPwO4W1evmKC7CbNkpxZ-70" value="" style="endArrow=none;html=1;rounded=0;fontSize=12;startSize=8;endSize=8;curved=1;" edge="1" parent="1">
          <mxGeometry width="50" height="50" relative="1" as="geometry">
            <mxPoint x="1464" y="389.86" as="sourcePoint" />
            <mxPoint x="1654" y="389.86" as="targetPoint" />
          </mxGeometry>
        </mxCell>
        <mxCell id="HPwO4W1evmKC7CbNkpxZ-71" value="" style="endArrow=classic;html=1;rounded=0;fontSize=12;startSize=8;endSize=8;curved=1;entryX=0.5;entryY=0;entryDx=0;entryDy=0;entryPerimeter=0;" edge="1" parent="1" target="HPwO4W1evmKC7CbNkpxZ-64">
          <mxGeometry width="50" height="50" relative="1" as="geometry">
            <mxPoint x="1465" y="390" as="sourcePoint" />
            <mxPoint x="1430" y="370" as="targetPoint" />
          </mxGeometry>
        </mxCell>
        <mxCell id="HPwO4W1evmKC7CbNkpxZ-72" value="User clicks &quot;confirm&quot;" style="shape=parallelogram;html=1;strokeWidth=2;perimeter=parallelogramPerimeter;whiteSpace=wrap;rounded=1;arcSize=12;size=0.23;" vertex="1" parent="1">
          <mxGeometry x="1415" y="600" width="100" height="60" as="geometry" />
        </mxCell>
        <mxCell id="HPwO4W1evmKC7CbNkpxZ-74" value="" style="endArrow=none;html=1;rounded=0;fontSize=12;startSize=8;endSize=8;curved=1;entryX=0.5;entryY=1;entryDx=0;entryDy=0;" edge="1" parent="1" target="HPwO4W1evmKC7CbNkpxZ-72">
          <mxGeometry width="50" height="50" relative="1" as="geometry">
            <mxPoint x="1465" y="910" as="sourcePoint" />
            <mxPoint x="1450" y="740" as="targetPoint" />
          </mxGeometry>
        </mxCell>
        <mxCell id="HPwO4W1evmKC7CbNkpxZ-75" value="" style="endArrow=none;html=1;rounded=0;fontSize=12;startSize=8;endSize=8;curved=1;" edge="1" parent="1">
          <mxGeometry width="50" height="50" relative="1" as="geometry">
            <mxPoint x="820" y="910" as="sourcePoint" />
            <mxPoint x="1470" y="910" as="targetPoint" />
          </mxGeometry>
        </mxCell>
        <mxCell id="HPwO4W1evmKC7CbNkpxZ-76" value="" style="endArrow=classic;html=1;rounded=0;fontSize=12;startSize=8;endSize=8;curved=1;entryX=0.397;entryY=0.977;entryDx=0;entryDy=0;entryPerimeter=0;" edge="1" parent="1" target="HPwO4W1evmKC7CbNkpxZ-29">
          <mxGeometry width="50" height="50" relative="1" as="geometry">
            <mxPoint x="820" y="910" as="sourcePoint" />
            <mxPoint x="820" y="870" as="targetPoint" />
          </mxGeometry>
        </mxCell>
        <mxCell id="HPwO4W1evmKC7CbNkpxZ-77" value="User Clicks &quot;logout&quot;" style="shape=parallelogram;html=1;strokeWidth=2;perimeter=parallelogramPerimeter;whiteSpace=wrap;rounded=1;arcSize=12;size=0.23;" vertex="1" parent="1">
          <mxGeometry x="1195" y="350" width="100" height="60" as="geometry" />
        </mxCell>
        <mxCell id="HPwO4W1evmKC7CbNkpxZ-82" value="" style="edgeStyle=none;curved=1;rounded=0;orthogonalLoop=1;jettySize=auto;html=1;fontSize=12;startSize=8;endSize=8;" edge="1" parent="1" source="HPwO4W1evmKC7CbNkpxZ-79" target="HPwO4W1evmKC7CbNkpxZ-81">
          <mxGeometry relative="1" as="geometry" />
        </mxCell>
        <mxCell id="HPwO4W1evmKC7CbNkpxZ-83" value="no" style="edgeLabel;html=1;align=center;verticalAlign=middle;resizable=0;points=[];fontSize=12;" vertex="1" connectable="0" parent="HPwO4W1evmKC7CbNkpxZ-82">
          <mxGeometry x="0.039" y="-4" relative="1" as="geometry">
            <mxPoint as="offset" />
          </mxGeometry>
        </mxCell>
        <mxCell id="HPwO4W1evmKC7CbNkpxZ-79" value="User log in" style="strokeWidth=2;html=1;shape=mxgraph.flowchart.decision;whiteSpace=wrap;" vertex="1" parent="1">
          <mxGeometry x="329" y="300" width="70" height="60" as="geometry" />
        </mxCell>
        <mxCell id="HPwO4W1evmKC7CbNkpxZ-81" value="end" style="strokeWidth=2;html=1;shape=mxgraph.flowchart.terminator;whiteSpace=wrap;" vertex="1" parent="1">
          <mxGeometry x="130" y="300" width="100" height="60" as="geometry" />
        </mxCell>
        <mxCell id="HPwO4W1evmKC7CbNkpxZ-84" value="" style="endArrow=none;html=1;rounded=0;fontSize=12;startSize=8;endSize=8;curved=1;exitX=0.5;exitY=0;exitDx=0;exitDy=0;" edge="1" parent="1" source="HPwO4W1evmKC7CbNkpxZ-77">
          <mxGeometry width="50" height="50" relative="1" as="geometry">
            <mxPoint x="1250" y="320" as="sourcePoint" />
            <mxPoint x="1245" y="90" as="targetPoint" />
          </mxGeometry>
        </mxCell>
        <mxCell id="HPwO4W1evmKC7CbNkpxZ-85" value="" style="endArrow=none;html=1;rounded=0;fontSize=12;startSize=8;endSize=8;curved=1;" edge="1" parent="1">
          <mxGeometry width="50" height="50" relative="1" as="geometry">
            <mxPoint x="180" y="90" as="sourcePoint" />
            <mxPoint x="1250" y="90" as="targetPoint" />
          </mxGeometry>
        </mxCell>
        <mxCell id="HPwO4W1evmKC7CbNkpxZ-86" value="" style="endArrow=classic;html=1;rounded=0;fontSize=12;startSize=8;endSize=8;curved=1;entryX=0.5;entryY=0;entryDx=0;entryDy=0;entryPerimeter=0;" edge="1" parent="1" target="HPwO4W1evmKC7CbNkpxZ-81">
          <mxGeometry width="50" height="50" relative="1" as="geometry">
            <mxPoint x="180" y="90" as="sourcePoint" />
            <mxPoint x="250" y="170" as="targetPoint" />
          </mxGeometry>
        </mxCell>
        <mxCell id="HPwO4W1evmKC7CbNkpxZ-90" value="" style="edgeStyle=none;curved=1;rounded=0;orthogonalLoop=1;jettySize=auto;html=1;fontSize=12;startSize=8;endSize=8;" edge="1" parent="1" source="HPwO4W1evmKC7CbNkpxZ-88" target="HPwO4W1evmKC7CbNkpxZ-33">
          <mxGeometry relative="1" as="geometry" />
        </mxCell>
        <mxCell id="HPwO4W1evmKC7CbNkpxZ-88" value="User clicks &quot;confirm&quot;" style="shape=parallelogram;html=1;strokeWidth=2;perimeter=parallelogramPerimeter;whiteSpace=wrap;rounded=1;arcSize=12;size=0.23;" vertex="1" parent="1">
          <mxGeometry x="510" y="705" width="100" height="60" as="geometry" />
        </mxCell>
        <mxCell id="HPwO4W1evmKC7CbNkpxZ-91" style="edgeStyle=none;curved=1;rounded=0;orthogonalLoop=1;jettySize=auto;html=1;entryX=0.082;entryY=0.98;entryDx=0;entryDy=0;entryPerimeter=0;fontSize=12;startSize=8;endSize=8;" edge="1" parent="1" source="HPwO4W1evmKC7CbNkpxZ-88" target="HPwO4W1evmKC7CbNkpxZ-1">
          <mxGeometry relative="1" as="geometry" />
        </mxCell>
        <mxCell id="HPwO4W1evmKC7CbNkpxZ-92" value="user clicks &quot;help&quot;" style="shape=parallelogram;html=1;strokeWidth=2;perimeter=parallelogramPerimeter;whiteSpace=wrap;rounded=1;arcSize=12;size=0.23;" vertex="1" parent="1">
          <mxGeometry x="1130" y="115" width="90" height="50" as="geometry" />
        </mxCell>
        <mxCell id="HPwO4W1evmKC7CbNkpxZ-93" value="User clicks &quot;account settings&quot;" style="shape=parallelogram;html=1;strokeWidth=2;perimeter=parallelogramPerimeter;whiteSpace=wrap;rounded=1;arcSize=12;size=0.23;" vertex="1" parent="1">
          <mxGeometry x="1125" y="190" width="90" height="50" as="geometry" />
        </mxCell>
        <mxCell id="HPwO4W1evmKC7CbNkpxZ-94" value="User clicks &quot;information wizard&quot;" style="shape=parallelogram;html=1;strokeWidth=2;perimeter=parallelogramPerimeter;whiteSpace=wrap;rounded=1;arcSize=12;size=0.23;" vertex="1" parent="1">
          <mxGeometry x="1125" y="270" width="90" height="50" as="geometry" />
        </mxCell>
        <mxCell id="HPwO4W1evmKC7CbNkpxZ-98" value="FAQs and User Manual displayed" style="rounded=0;whiteSpace=wrap;html=1;" vertex="1" parent="1">
          <mxGeometry x="1305" y="105" width="120" height="60" as="geometry" />
        </mxCell>
        <mxCell id="HPwO4W1evmKC7CbNkpxZ-99" value="&quot;Change Username&quot;, &quot;Change password&quot;,&lt;div&gt;&quot;delete OSINT information &quot; and &quot;delete account&quot; options displayed&lt;/div&gt;" style="rounded=0;whiteSpace=wrap;html=1;" vertex="1" parent="1">
          <mxGeometry x="1292.5" y="180" width="157.5" height="80" as="geometry" />
        </mxCell>
        <mxCell id="HPwO4W1evmKC7CbNkpxZ-101" style="edgeStyle=none;curved=1;rounded=0;orthogonalLoop=1;jettySize=auto;html=1;entryX=-0.004;entryY=0.621;entryDx=0;entryDy=0;entryPerimeter=0;fontSize=12;startSize=8;endSize=8;" edge="1" parent="1" source="HPwO4W1evmKC7CbNkpxZ-92" target="HPwO4W1evmKC7CbNkpxZ-98">
          <mxGeometry relative="1" as="geometry" />
        </mxCell>
        <mxCell id="HPwO4W1evmKC7CbNkpxZ-102" style="edgeStyle=none;curved=1;rounded=0;orthogonalLoop=1;jettySize=auto;html=1;entryX=0.003;entryY=0.433;entryDx=0;entryDy=0;entryPerimeter=0;fontSize=12;startSize=8;endSize=8;" edge="1" parent="1" source="HPwO4W1evmKC7CbNkpxZ-93" target="HPwO4W1evmKC7CbNkpxZ-99">
          <mxGeometry relative="1" as="geometry" />
        </mxCell>
        <mxCell id="HPwO4W1evmKC7CbNkpxZ-103" value="" style="endArrow=none;html=1;rounded=0;fontSize=12;startSize=8;endSize=8;curved=1;exitX=1;exitY=0.5;exitDx=0;exitDy=0;" edge="1" parent="1" source="HPwO4W1evmKC7CbNkpxZ-94">
          <mxGeometry width="50" height="50" relative="1" as="geometry">
            <mxPoint x="1320" y="340" as="sourcePoint" />
            <mxPoint x="1360" y="295" as="targetPoint" />
          </mxGeometry>
        </mxCell>
        <mxCell id="HPwO4W1evmKC7CbNkpxZ-104" value="" style="endArrow=none;html=1;rounded=0;fontSize=12;startSize=8;endSize=8;curved=1;" edge="1" parent="1">
          <mxGeometry width="50" height="50" relative="1" as="geometry">
            <mxPoint x="1360" y="660" as="sourcePoint" />
            <mxPoint x="1360" y="290" as="targetPoint" />
          </mxGeometry>
        </mxCell>
        <mxCell id="HPwO4W1evmKC7CbNkpxZ-105" value="" style="endArrow=none;html=1;rounded=0;fontSize=12;startSize=8;endSize=8;curved=1;" edge="1" parent="1">
          <mxGeometry width="50" height="50" relative="1" as="geometry">
            <mxPoint x="460" y="660" as="sourcePoint" />
            <mxPoint x="1360" y="660" as="targetPoint" />
          </mxGeometry>
        </mxCell>
        <mxCell id="HPwO4W1evmKC7CbNkpxZ-106" value="" style="endArrow=classic;html=1;rounded=0;fontSize=12;startSize=8;endSize=8;curved=1;entryX=1;entryY=0.25;entryDx=0;entryDy=0;" edge="1" parent="1" target="HPwO4W1evmKC7CbNkpxZ-3">
          <mxGeometry width="50" height="50" relative="1" as="geometry">
            <mxPoint x="460" y="660" as="sourcePoint" />
            <mxPoint x="440" y="620" as="targetPoint" />
            <Array as="points">
              <mxPoint x="470" y="600" />
            </Array>
          </mxGeometry>
        </mxCell>
        <mxCell id="HPwO4W1evmKC7CbNkpxZ-107" value="&quot;Burger&quot; menu interacted with" style="shape=parallelogram;html=1;strokeWidth=2;perimeter=parallelogramPerimeter;whiteSpace=wrap;rounded=1;arcSize=12;size=0.23;" vertex="1" parent="1">
          <mxGeometry x="975" y="420" width="135" height="40" as="geometry" />
        </mxCell>
        <mxCell id="HPwO4W1evmKC7CbNkpxZ-108" value="" style="endArrow=classic;html=1;rounded=0;fontSize=12;startSize=8;endSize=8;curved=1;entryX=0;entryY=0.5;entryDx=0;entryDy=0;" edge="1" parent="1" target="HPwO4W1evmKC7CbNkpxZ-107">
          <mxGeometry width="50" height="50" relative="1" as="geometry">
            <mxPoint x="920" y="440" as="sourcePoint" />
            <mxPoint x="980" y="420" as="targetPoint" />
          </mxGeometry>
        </mxCell>
        <mxCell id="HPwO4W1evmKC7CbNkpxZ-109" value="" style="endArrow=classic;html=1;rounded=0;fontSize=12;startSize=8;endSize=8;curved=1;exitX=0;exitY=1;exitDx=0;exitDy=0;entryX=1;entryY=0;entryDx=0;entryDy=0;" edge="1" parent="1" source="HPwO4W1evmKC7CbNkpxZ-107" target="HPwO4W1evmKC7CbNkpxZ-1">
          <mxGeometry width="50" height="50" relative="1" as="geometry">
            <mxPoint x="1100" y="470" as="sourcePoint" />
            <mxPoint x="1150" y="420" as="targetPoint" />
          </mxGeometry>
        </mxCell>
      </root>
    </mxGraphModel>
  </diagram>
</mxfile>
